<svg width="186" height="60" viewBox="0 0 186 60" fill="none" xmlns="http://www.w3.org/2000/svg">
<path d="M52.5 0C56.6421 1.20798e-07 60 3.35786 60 7.5V22.5C60 26.6421 56.6421 30 52.5 30H45C53.2843 30 60 36.7157 60 45C60 53.2843 53.2843 60 45 60H7.5C3.35787 60 0 56.6421 0 52.5V37.5C0 33.3579 3.35786 30 7.5 30H15C6.71573 30 0 23.2843 0 15C0 6.71573 6.71573 0 15 0H52.5Z" fill="white"/>
<path d="M115.5 0C119.642 0 123 3.35786 123 7.5V22.5C123 26.6421 119.642 30 115.5 30C119.642 30 123 33.3579 123 37.5V52.5C123 56.6421 119.642 60 115.5 60H93C76.4315 60 63 46.5685 63 30C63 13.4315 76.4315 0 93 0H115.5Z" fill="white"/>
<path d="M171 0C179.284 0 186 6.71573 186 15C186 23.2843 179.284 30 171 30H156C172.569 30 186 43.4315 186 60H133.5C129.358 60 126 56.6421 126 52.5V7.5C126 3.35786 129.358 1.20798e-07 133.5 0H171Z" fill="white"/>
</svg>
